<?xml version="1.0" encoding="UTF-8" standalone="no"?>
<!-- Created with Inkscape (http://www.inkscape.org/) -->

<svg
    xmlns:dc="http://purl.org/dc/elements/1.1/"
    xmlns:cc="http://creativecommons.org/ns#"
    xmlns:rdf="http://www.w3.org/1999/02/22-rdf-syntax-ns#"
    xmlns:svg="http://www.w3.org/2000/svg"
    xmlns="http://www.w3.org/2000/svg"
    version="1.1"
    width="744.09003"
    height="1052.4"
    id="svg3305">
    <defs
        id="defs28" />
    <metadata
        id="metadata3310">   
    </metadata>
    <g
        id="layer1">
        <g
            id="g3147">
            <g
                transform="scale(1.0453835,0.95658674)"
                id="text4029"
                style="font-size:130.69046021px;font-style:normal;font-variant:normal;font-weight:normal;font-stretch:normal;text-align:center;line-height:125%;letter-spacing:0px;word-spacing:0px;text-anchor:middle;fill:#464543;font-family:Dekar">
                <path
                    d="m 313.19,450.3 0,35.417 c -10.717,-12.677 -42.344,-7.9721 -42.344,11.501 v 28.883 c 0,8.6256 6.5345,14.115 14.899,16.336 9.6711,2.6138 22.74,0.13068 27.968,-7.3187 v 7.188 h 6.0118 v -92.006 h -6.5345 m 0,72.925 c 0,9.9325 -9.6711,13.853 -17.905,13.853 -2.6138,0 -5.3583,-0.26138 -7.7107,-0.91483 -5.7504,-1.5683 -10.194,-4.9662 -10.194,-10.063 h 0.13069 v -29.144 c 0,-16.467 35.678,-15.16 35.678,-0.91483 v 27.184"
                    id="path3115" />
                <path
                    d="m 365.94,535.12 c -4.5742,1.5683 -9.5404,1.8297 -14.376,1.0455 -6.7959,-1.1762 -12.677,-4.9662 -12.677,-10.847 v -30.32 c 0,-5.2276 4.4435,-8.4949 10.063,-10.063 2.4831,-0.65345 5.0969,-1.0455 7.8414,-1.0455 2.7445,0 5.3583,0.39208 7.8414,1.0455 5.6197,1.5683 10.063,4.9662 10.063,10.063 v 30.32 c 0,4.7048 -3.79,8.1028 -8.7563,9.8018 m 15.291,-40.122 c 0,-8.6256 -6.5345,-14.115 -14.899,-16.336 -3.0059,-0.91484 -6.2731,-1.3069 -9.5404,-1.3069 -3.2673,0 -6.4038,0.39207 -9.5404,1.3069 -8.3642,2.2217 -14.899,7.7107 -14.899,16.336 v 30.32 c 0,9.8018 8.3642,15.421 18.166,17.12 5.8811,0.91483 11.893,0.65345 17.513,-1.1762 7.58,-2.6138 13.2,-7.8414 13.2,-15.944 v -30.32"
                    id="path3117" />
                <path
                    d="m 439.49,495 c 0.52276,-7.8414 8.3642,-11.37 16.206,-11.37 8.1028,0 16.206,3.6593 16.206,12.024 v 46.656 h 6.6652 v -46.526 c 0,-12.285 -11.37,-18.035 -22.74,-18.166 -7.4494,0 -15.683,2.8752 -19.212,9.0176 -2.7445,-6.1424 -10.325,-9.279 -18.297,-9.279 -6.1424,0 -12.938,1.5683 -17.774,6.9266 v -6.1425 h -6.6652 v 64.169 h 6.6652 v -45.611 c 0,-8.1028 8.3642,-13.2 16.728,-13.461 7.58,-0.13069 15.16,3.6593 15.683,11.762 v 47.31 h 6.5345 v -47.31"
                    id="path3119" />
                <path
                    d="m 525.73,535.12 c -4.5742,1.5683 -9.5404,1.8297 -14.376,1.0455 -6.7959,-1.1762 -12.677,-4.9662 -12.677,-10.847 v -30.32 c 0,-5.2276 4.4435,-8.4949 10.063,-10.063 2.4831,-0.65345 5.0969,-1.0455 7.8414,-1.0455 2.7445,0 5.3583,0.39208 7.8414,1.0455 5.6197,1.5683 10.063,4.9662 10.063,10.063 v 30.32 c 0,4.7048 -3.79,8.1028 -8.7563,9.8018 m 15.291,-40.122 c 0,-8.6256 -6.5345,-14.115 -14.899,-16.336 -3.0059,-0.91484 -6.2732,-1.3069 -9.5404,-1.3069 -3.2673,0 -6.4038,0.39207 -9.5404,1.3069 -8.3642,2.2217 -14.899,7.7107 -14.899,16.336 v 30.32 c 0,9.8018 8.3642,15.421 18.166,17.12 5.8811,0.91483 11.893,0.65345 17.513,-1.1762 7.58,-2.6138 13.2,-7.8414 13.2,-15.944 v -30.32"
                    id="path3121" />
                <path
                    d="m 560.07,450.57 0,27.576 -11.239,0 0,5.8811 11.239,0 0,40.383 c 0,14.507 11.37,18.819 23.263,18.166 v -6.0118 c -8.6256,-0.26138 -16.728,-1.3069 -16.728,-12.285 v -40.122 c 5.2276,-0.13069 10.325,-0.13069 15.552,-0.13069 v -5.8811 h -15.552 v -27.576 h -6.5345"
                    id="path3123" />
                <path
                    d="m 592.88,462.2 7.4494,0 0,-11.631 -7.4494,0 0,11.631 m 0.39207,80.113 6.6652,0 0,-64.169 -6.6652,0 0,64.169"
                    id="path3125" />
                <path
                    d="m 656.63,525.45 c 0,5.2276 -4.4435,8.6256 -10.063,10.194 h -0.13069 c -4.8355,1.3069 -10.717,1.3069 -15.552,0 -4.9662,-1.4376 -10.063,-4.5742 -10.063,-10.455 v -29.797 c 0,-5.8811 5.2276,-9.0176 10.063,-10.325 2.4831,-0.65345 5.0969,-1.0455 7.8414,-1.0455 2.6138,0 5.3583,0.39208 7.7107,1.0455 5.7504,1.5683 10.194,4.9662 10.194,10.194 h 6.5345 c 0,-8.7562 -6.5345,-14.115 -14.899,-16.467 -3.1366,-0.78415 -6.4038,-1.3069 -9.5404,-1.3069 -3.2673,0 -6.5345,0.52276 -9.5404,1.3069 -7.9721,2.2217 -14.899,7.58 -14.899,16.467 v 29.928 c 0,9.0176 6.7959,14.507 14.899,16.728 6.1424,1.5683 12.938,1.5683 19.081,0 v -0.13069 c 8.3642,-2.2217 14.899,-7.7108 14.899,-16.336 h -6.5345"
                    id="path3127" />
            </g>
        </g>
        <g
            transform="matrix(1.4794105,0,0,1.4794105,831.93054,-978.56356)"
            id="g4033">
            <g
                transform="translate(-64.548847,464.39521)"
                id="g4035"
                style="fill:#4c4b49;fill-rule:nonzero">
                <path
                    d="m -130.11,462.37 c 0,1.5133 -1.2268,2.74 -2.74,2.74 -1.5133,0 -2.74,-1.2268 -2.74,-2.74 0,-1.5133 1.2268,-2.74 2.74,-2.74 1.5133,0 2.74,1.2268 2.74,2.74 z"
                    id="path4037" />
                <path
                    d="m -132.59,467.94 c -15.823,0 -16.584,11.751 -16.584,15.089 0,1.9014 -0.10301,11.254 -0.10301,11.254 l 33.023,0.15326 c 0,0 0.16521,-9.0473 0.16521,-10.948 0,-7.8161 -4.496,-15.549 -16.501,-15.549 z m -6.6875,11.75 c 2.4896,0 4.5312,2.0104 4.5312,4.5 0,2.4896 -2.0417,4.5 -4.5312,4.5 -2.4896,0 -4.5,-2.0104 -4.5,-4.5 0,-2.4896 2.0104,-4.5 4.5,-4.5 z m 12.562,0 c 2.4896,0 4.5,2.0104 4.5,4.5 0,2.4896 -2.0104,4.5 -4.5,4.5 -2.4896,0 -4.5,-2.0104 -4.5,-4.5 0,-2.4896 2.0104,-4.5 4.5,-4.5 z"
                    id="path4039" />
                <rect
                    width="33.056999"
                    height="5.4801002"
                    x="-149.31"
                    y="496.73999"
                    id="rect4041" />
                <rect
                    width="1.4141999"
                    height="5.8336"
                    x="-133.47"
                    y="464.04999"
                    id="rect4043" />
            </g>
        </g>
        <path
            d="m 108.95,468.11 c 0,-1.1619 -0.72618,-1.8881 -0.72618,-2.0333 -1.1619,0 -2.7595,-0.14524 -4.938,-0.29047 -2.1785,-0.29047 -3.3404,-0.43571 -3.6309,-0.43571 -0.14524,0 -3.1952,0.43571 -9.4403,1.3071 -6.6808,0.72618 -12.055,1.3071 -16.266,1.5976 3.9214,-11.474 7.1166,-19.607 9.2951,-24.69 1.3071,-3.3404 3.7761,-7.988 7.2618,-13.943 3.9214,-6.6808 6.3904,-10.021 7.5523,-10.167 1.3071,-0.14524 1.8881,1.0166 1.8881,3.4857 0,-0.43571 -0.43571,2.7595 -1.4524,9.4403 1.7428,0.87142 2.9047,1.3071 3.3404,1.3071 2.0333,0 3.9214,-2.1786 5.8094,-6.3904 1.5976,-3.7761 2.469,-7.2618 2.469,-10.312 0.14523,-2.1785 -0.58095,-4.6476 -2.1785,-7.6975 -1.7428,-3.6309 -3.7761,-5.3737 -6.0999,-5.3737 -1.8881,0 -4.3571,1.1619 -7.5523,3.6309 -2.7595,2.1785 -4.7928,4.0666 -5.9547,5.6642 -3.05,4.6475 -5.6642,9.7308 -7.6975,15.25 -7.5523,19.026 -13.362,33.114 -17.283,42.554 -2.3238,0.72618 -4.6476,1.4524 -6.8261,2.1785 -3.4857,1.4524 -5.2285,3.1952 -5.2285,5.3737 0,1.4524 0.87142,3.1952 2.6142,5.3737 2.6142,2.6142 3.9214,4.2118 3.9214,4.6476 0,3.9214 -3.7761,15.831 -11.328,35.728 -7.407,19.897 -11.183,29.628 -11.183,29.338 0,1.0166 0.43571,2.0333 1.4524,3.3404 1.3071,1.7428 3.05,2.6142 5.0833,2.6142 1.5976,0 2.6142,-0.87142 3.3404,-2.6142 2.9047,-7.988 7.1166,-21.059 12.49,-38.923 5.2285,-17.283 9.4403,-30.064 12.636,-38.488 5.0833,-1.5976 10.167,-2.6142 14.959,-3.1952 2.1785,-0.14524 9.0046,-1.5976 20.188,-4.2118 2.3238,-1.3071 3.4857,-2.7595 3.4857,-4.0666"
            id="path3102"
            style="text-align:center;fill:#8cad25" />
        <path
            d="m 151.58,473.33 c 0,-6.6808 -0.58095,-11.328 -1.5976,-13.943 -1.0166,-2.1785 -2.469,-3.1952 -4.6476,-3.1952 -3.1952,0 -6.6808,1.4524 -10.457,4.3571 -2.9047,2.469 -5.8094,5.0833 -8.5689,7.5523 -0.29047,-0.29047 -0.72618,-1.4524 -1.4524,-3.4857 -0.58094,-1.4524 -1.4524,-2.1785 -2.6142,-2.1785 -1.8881,1.5976 -3.4857,3.9214 -4.5023,6.8261 -0.58095,1.4524 -1.4524,4.6476 -2.6142,9.7308 -2.7595,9.1498 -5.2285,16.702 -7.2618,22.947 -1.3071,4.7928 -1.8881,7.407 -1.8881,7.988 0,1.3071 1.0166,3.05 3.1952,4.938 1.4524,1.3071 2.7595,2.1785 3.9214,2.7595 1.5976,-1.3071 2.9047,-3.7761 3.6309,-7.1166 0.4357,-2.7595 1.0166,-5.3737 1.4524,-8.1332 2.6142,-8.2784 6.5356,-16.121 11.619,-23.528 5.0832,-7.407 9.1499,-11.183 12.2,-11.183 1.8881,0 2.7595,1.0167 2.7595,3.1952 0,1.1619 -1.3071,5.519 -0.87141,7.1166 0.14523,2.1785 -0.14524,4.2118 2.1785,6.6808 1.5976,-0.72618 2.9047,-2.3238 4.0666,-4.938 1.0166,-2.3238 1.4524,-4.5023 1.4524,-6.3904"
            id="path3104"
            style="text-align:center;fill:#8cad25" />
        <path
            d="m 205.94,467.96 c 0,-2.1785 -1.0166,-4.3571 -3.1952,-6.5356 -2.1785,-2.1785 -4.2118,-3.1952 -6.3904,-3.1952 -7.8427,0 -16.121,4.938 -24.835,14.959 -8.7142,10.021 -12.926,18.881 -12.781,26.578 0.14523,5.0833 1.7428,9.4403 4.7928,13.216 3.6309,4.2118 8.2784,6.3904 13.943,6.3904 3.3404,0 8.2784,-1.8881 15.105,-5.6642 6.8261,-3.6309 11.038,-6.6808 12.636,-9.0046 -1.0166,-1.0166 -2.3238,-1.4524 -3.6309,-1.1619 0,0.14523 -3.1952,1.4524 -9.7308,4.2118 -5.6642,2.3238 -9.876,3.4857 -12.636,3.4857 -2.469,0 -4.7928,-0.87142 -7.1166,-2.6142 -2.9047,-2.1785 -4.5023,-4.938 -4.7928,-8.1332 7.407,-0.4357 15.685,-4.6476 24.835,-12.49 9.1498,-7.8427 13.797,-14.524 13.797,-20.043 m -9.7308,2.1785 c -2.469,5.0832 -5.6642,9.0046 -9.7308,12.055 -3.9214,2.9047 -6.5356,4.6476 -7.8427,5.3737 -2.6142,1.4524 -5.3737,2.1785 -8.2784,2.1785 1.5976,-3.9214 4.6476,-8.1332 9.2951,-12.781 5.519,-5.3737 10.312,-7.988 14.524,-7.988 0.58095,0 1.3071,0.4357 2.0333,1.1619"
            id="path3106"
            style="text-align:center;fill:#8cad25" />
        <path
            d="m 262.67,467.96 c 0,-2.1785 -1.0166,-4.3571 -3.1952,-6.5356 -2.1785,-2.1785 -4.2118,-3.1952 -6.3904,-3.1952 -7.8427,0 -16.121,4.938 -24.835,14.959 -8.7142,10.021 -12.926,18.881 -12.781,26.578 0.14524,5.0833 1.7428,9.4403 4.7928,13.216 3.6309,4.2118 8.2785,6.3904 13.943,6.3904 3.3404,0 8.2784,-1.8881 15.105,-5.6642 6.8261,-3.6309 11.038,-6.6808 12.636,-9.0046 -1.0166,-1.0166 -2.3238,-1.4524 -3.6309,-1.1619 0,0.14523 -3.1952,1.4524 -9.7308,4.2118 -5.6642,2.3238 -9.876,3.4857 -12.636,3.4857 -2.469,0 -4.7928,-0.87142 -7.1166,-2.6142 -2.9047,-2.1785 -4.5023,-4.938 -4.7928,-8.1332 7.407,-0.4357 15.685,-4.6476 24.835,-12.49 9.1499,-7.8427 13.797,-14.524 13.797,-20.043 m -9.7308,2.1785 c -2.469,5.0832 -5.6642,9.0046 -9.7308,12.055 -3.9214,2.9047 -6.5356,4.6476 -7.8427,5.3737 -2.6142,1.4524 -5.3737,2.1785 -8.2784,2.1785 1.5976,-3.9214 4.6476,-8.1332 9.2951,-12.781 5.519,-5.3737 10.312,-7.988 14.524,-7.988 0.58094,0 1.3071,0.4357 2.0333,1.1619"
            id="path3108"
            style="text-align:center;fill:#8cad25" />
        <path
            d="m -668.28,311.27 -6.0738,-10.52 12.148,0 z"
            transform="matrix(1.7950544,0,0,1.2158868,1740.2239,104.55417)"
            id="path4888"
            style="opacity:0.98999999;fill:#4c4b49;fill-rule:nonzero" />
        <path
            d="m -668.28,311.27 -6.0738,-10.52 12.148,0 z"
            transform="matrix(1.1159015,0,0,-1.9288126,1286.3581,1086.3744)"
            id="path4890"
            style="opacity:0.98999999;fill:#4c4b49;fill-rule:nonzero" />
    </g>
</svg>
